%YAML 1.1
%TAG !u! tag:unity3d.com,2011:
--- !u!43 &4300000
Mesh:
  m_ObjectHideFlags: 0
  m_CorrespondingSourceObject: {fileID: 0}
  m_PrefabInstance: {fileID: 0}
  m_PrefabAsset: {fileID: 0}
  m_Name: buildings316
  serializedVersion: 11
  m_SubMeshes:
  - serializedVersion: 2
    firstByte: 0
    indexCount: 48
    topology: 0
    baseVertex: 0
    firstVertex: 0
    vertexCount: 20
    localAABB:
      m_Center: {x: -11.162228, y: 0.5, z: -0.9236603}
      m_Extent: {x: 92.002075, y: 0.5, z: 109.91385}
  m_Shapes:
    vertices: []
    shapes: []
    channels: []
    fullWeights: []
  m_BindPose: []
  m_BoneNameHashes: 
  m_RootBoneNameHash: 0
  m_BonesAABB: []
  m_VariableBoneCountWeights:
    m_Data: 
  m_MeshCompression: 0
  m_IsReadable: 1
  m_KeepVertices: 1
  m_KeepIndices: 1
  m_IndexFormat: 0
  m_IndexBuffer: 000004000300020001000000020000000300050006000a0006000b000a00060007000b0007000c000b00070008000c0008000d000c00080009000d0009000e000d00090005000e0005000a000e0012000f0011000f0010001100120013000f00
  m_VertexData:
    serializedVersion: 3
    m_VertexCount: 20
    m_Channels:
    - stream: 0
      offset: 0
      format: 0
      dimension: 3
    - stream: 0
      offset: 12
      format: 0
      dimension: 3
    - stream: 0
      offset: 0
      format: 0
      dimension: 0
    - stream: 0
      offset: 0
      format: 0
      dimension: 0
    - stream: 0
      offset: 0
      format: 0
      dimension: 0
    - stream: 0
      offset: 0
      format: 0
      dimension: 0
    - stream: 0
      offset: 0
      format: 0
      dimension: 0
    - stream: 0
      offset: 0
      format: 0
      dimension: 0
    - stream: 0
      offset: 0
      format: 0
      dimension: 0
    - stream: 0
      offset: 0
      format: 0
      dimension: 0
    - stream: 0
      offset: 0
      format: 0
      dimension: 0
    - stream: 0
      offset: 0
      format: 0
      dimension: 0
    - stream: 0
      offset: 0
      format: 0
      dimension: 0
    - stream: 0
      offset: 0
      format: 0
      dimension: 0
    m_DataSize: 480
    _typelessdata: 2054cec200000000b473debf00000000000080bf00000000427f134200000000fafad94200000000000080bf0000000001aea14200000000def6424200000000000080bf0000000020a79442000000005740b7c100000000000080bf0000000085f1a0c100000000ceacddc200000000000080bf000000002054cec2000000000074debf60337fbf00000000f9b6a1bd407f134200000000fafad942280de4be000000000a34653f00aea14200000000e0f6424261b66b3f00000000a5c1c73e20a79442000000005440b7c15326683f000000000acdd7be80f1a0c100000000ceacddc2b226743e00000000f09d78bf2054cec20000803f0074debf4ce65bbf00000000b912033f407f13420000803ffafad94299612f3d00000000e6c37f3f00aea1420000803fe0f64242ce177d3f0000000071e1193e20a794420000803f5440b7c11cee483f00000000f9a01ebf80f1a0c10000803fceacddc205f9e4be0000000039f964bf2054cec20000803f0074debf000000000000803f00000000407f13420000803ffafad942000000000000803f0000000000aea1420000803fe0f64242000000000000803f0000000020a794420000803f5440b7c1000000000000803f0000000080f1a0c10000803fceacddc2000000000000803f00000000
  m_CompressedMesh:
    m_Vertices:
      m_NumItems: 0
      m_Range: 0
      m_Start: 0
      m_Data: 
      m_BitSize: 0
    m_UV:
      m_NumItems: 0
      m_Range: 0
      m_Start: 0
      m_Data: 
      m_BitSize: 0
    m_Normals:
      m_NumItems: 0
      m_Range: 0
      m_Start: 0
      m_Data: 
      m_BitSize: 0
    m_Tangents:
      m_NumItems: 0
      m_Range: 0
      m_Start: 0
      m_Data: 
      m_BitSize: 0
    m_Weights:
      m_NumItems: 0
      m_Data: 
      m_BitSize: 0
    m_NormalSigns:
      m_NumItems: 0
      m_Data: 
      m_BitSize: 0
    m_TangentSigns:
      m_NumItems: 0
      m_Data: 
      m_BitSize: 0
    m_FloatColors:
      m_NumItems: 0
      m_Range: 0
      m_Start: 0
      m_Data: 
      m_BitSize: 0
    m_BoneIndices:
      m_NumItems: 0
      m_Data: 
      m_BitSize: 0
    m_Triangles:
      m_NumItems: 0
      m_Data: 
      m_BitSize: 0
    m_UVInfo: 0
  m_LocalAABB:
    m_Center: {x: -11.162228, y: 0.5, z: -0.9236603}
    m_Extent: {x: 92.002075, y: 0.5, z: 109.91385}
  m_MeshUsageFlags: 0
  m_CookingOptions: 30
  m_BakedConvexCollisionMesh: 
  m_BakedTriangleCollisionMesh: 
  'm_MeshMetrics[0]': 1
  'm_MeshMetrics[1]': 1
  m_MeshOptimizationFlags: 1
  m_StreamData:
    serializedVersion: 2
    offset: 0
    size: 0
    path: 
