%YAML 1.1
%TAG !u! tag:unity3d.com,2011:
--- !u!43 &4300000
Mesh:
  m_ObjectHideFlags: 0
  m_CorrespondingSourceObject: {fileID: 0}
  m_PrefabInstance: {fileID: 0}
  m_PrefabAsset: {fileID: 0}
  m_Name: buildings302
  serializedVersion: 11
  m_SubMeshes:
  - serializedVersion: 2
    firstByte: 0
    indexCount: 48
    topology: 0
    baseVertex: 0
    firstVertex: 0
    vertexCount: 20
    localAABB:
      m_Center: {x: 2.479187, y: 0.5, z: -1.5443268}
      m_Extent: {x: 65.9483, y: 0.5, z: 51.293167}
  m_Shapes:
    vertices: []
    shapes: []
    channels: []
    fullWeights: []
  m_BindPose: []
  m_BoneNameHashes: 
  m_RootBoneNameHash: 0
  m_BonesAABB: []
  m_VariableBoneCountWeights:
    m_Data: 
  m_MeshCompression: 0
  m_IsReadable: 1
  m_KeepVertices: 1
  m_KeepIndices: 1
  m_IndexFormat: 0
  m_IndexBuffer: 010000000400010004000300030002000100050006000a0006000b000a00060007000b0007000c000b00070008000c0008000d000c00080009000d0009000e000d00090005000e0005000a000e0010001100120012001300100013000f001000
  m_VertexData:
    serializedVersion: 3
    m_VertexCount: 20
    m_Channels:
    - stream: 0
      offset: 0
      format: 0
      dimension: 3
    - stream: 0
      offset: 12
      format: 0
      dimension: 3
    - stream: 0
      offset: 0
      format: 0
      dimension: 0
    - stream: 0
      offset: 0
      format: 0
      dimension: 0
    - stream: 0
      offset: 0
      format: 0
      dimension: 0
    - stream: 0
      offset: 0
      format: 0
      dimension: 0
    - stream: 0
      offset: 0
      format: 0
      dimension: 0
    - stream: 0
      offset: 0
      format: 0
      dimension: 0
    - stream: 0
      offset: 0
      format: 0
      dimension: 0
    - stream: 0
      offset: 0
      format: 0
      dimension: 0
    - stream: 0
      offset: 0
      format: 0
      dimension: 0
    - stream: 0
      offset: 0
      format: 0
      dimension: 0
    - stream: 0
      offset: 0
      format: 0
      dimension: 0
    - stream: 0
      offset: 0
      format: 0
      dimension: 0
    m_DataSize: 480
    _typelessdata: 60e07dc200000000237b964100000000000080bf0000000085116b4100000000d0fe464200000000000080bf00000000e0da884200000000faa3104100000000ffff7fbf0000000000a8774200000000031c88c100000000000080bf00000000e12c1cc200000000975953c200000000ffff7fbf0000000060e07dc200000000207b9641eb737cbf00000000d3df293e80116b4100000000d0fe46421959cdbd00000000bbb57e3fe0da88420000000000a41041c5953a3f00000000ec462f3f00a8774200000000001c88c1a85d1c3f0000000034b24abfe02c1cc200000000985953c2cec5103400000000000080bf60e07dc20000803f207b9641682036bf00000000bee7333f80116b410000803fd0fe46426259863e000000008e07773fe0da88420000803f00a4104119716a3f0000000091a6cd3e00a877420000803f001c88c17a4fd93e0000000024cc67bfe02c1cc20000803f985953c27b3915bf000000007e0250bf60e07dc20000803f207b9641000000000000803f0000000080116b410000803fd0fe4642000000000000803f00000000e0da88420000803f00a4104100000000ffff7f3f0000000000a877420000803f001c88c1000000000000803f00000000e02c1cc20000803f985953c200000000ffff7f3f00000000
  m_CompressedMesh:
    m_Vertices:
      m_NumItems: 0
      m_Range: 0
      m_Start: 0
      m_Data: 
      m_BitSize: 0
    m_UV:
      m_NumItems: 0
      m_Range: 0
      m_Start: 0
      m_Data: 
      m_BitSize: 0
    m_Normals:
      m_NumItems: 0
      m_Range: 0
      m_Start: 0
      m_Data: 
      m_BitSize: 0
    m_Tangents:
      m_NumItems: 0
      m_Range: 0
      m_Start: 0
      m_Data: 
      m_BitSize: 0
    m_Weights:
      m_NumItems: 0
      m_Data: 
      m_BitSize: 0
    m_NormalSigns:
      m_NumItems: 0
      m_Data: 
      m_BitSize: 0
    m_TangentSigns:
      m_NumItems: 0
      m_Data: 
      m_BitSize: 0
    m_FloatColors:
      m_NumItems: 0
      m_Range: 0
      m_Start: 0
      m_Data: 
      m_BitSize: 0
    m_BoneIndices:
      m_NumItems: 0
      m_Data: 
      m_BitSize: 0
    m_Triangles:
      m_NumItems: 0
      m_Data: 
      m_BitSize: 0
    m_UVInfo: 0
  m_LocalAABB:
    m_Center: {x: 2.479187, y: 0.5, z: -1.5443268}
    m_Extent: {x: 65.9483, y: 0.5, z: 51.293167}
  m_MeshUsageFlags: 0
  m_CookingOptions: 30
  m_BakedConvexCollisionMesh: 
  m_BakedTriangleCollisionMesh: 
  'm_MeshMetrics[0]': 1
  'm_MeshMetrics[1]': 1
  m_MeshOptimizationFlags: 1
  m_StreamData:
    serializedVersion: 2
    offset: 0
    size: 0
    path: 
