%YAML 1.1
%TAG !u! tag:unity3d.com,2011:
--- !u!43 &4300000
Mesh:
  m_ObjectHideFlags: 0
  m_CorrespondingSourceObject: {fileID: 0}
  m_PrefabInstance: {fileID: 0}
  m_PrefabAsset: {fileID: 0}
  m_Name: buildings314
  serializedVersion: 11
  m_SubMeshes:
  - serializedVersion: 2
    firstByte: 0
    indexCount: 36
    topology: 0
    baseVertex: 0
    firstVertex: 0
    vertexCount: 16
    localAABB:
      m_Center: {x: -1.0150146, y: 0.5, z: 1.8998222}
      m_Extent: {x: 128.64001, y: 0.5, z: 118.05565}
  m_Shapes:
    vertices: []
    shapes: []
    channels: []
    fullWeights: []
  m_BindPose: []
  m_BoneNameHashes: 
  m_RootBoneNameHash: 0
  m_BonesAABB: []
  m_VariableBoneCountWeights:
    m_Data: 
  m_MeshCompression: 0
  m_IsReadable: 1
  m_KeepVertices: 1
  m_KeepIndices: 1
  m_IndexFormat: 0
  m_IndexBuffer: 03000200010001000000030004000500080005000900080005000600090006000a000900060007000a0007000b000a00070004000b00040008000b000f000c000d000d000e000f00
  m_VertexData:
    serializedVersion: 3
    m_VertexCount: 16
    m_Channels:
    - stream: 0
      offset: 0
      format: 0
      dimension: 3
    - stream: 0
      offset: 12
      format: 0
      dimension: 3
    - stream: 0
      offset: 0
      format: 0
      dimension: 0
    - stream: 0
      offset: 0
      format: 0
      dimension: 0
    - stream: 0
      offset: 0
      format: 0
      dimension: 0
    - stream: 0
      offset: 0
      format: 0
      dimension: 0
    - stream: 0
      offset: 0
      format: 0
      dimension: 0
    - stream: 0
      offset: 0
      format: 0
      dimension: 0
    - stream: 0
      offset: 0
      format: 0
      dimension: 0
    - stream: 0
      offset: 0
      format: 0
      dimension: 0
    - stream: 0
      offset: 0
      format: 0
      dimension: 0
    - stream: 0
      offset: 0
      format: 0
      dimension: 0
    - stream: 0
      offset: 0
      format: 0
      dimension: 0
    - stream: 0
      offset: 0
      format: 0
      dimension: 0
    m_DataSize: 384
    _typelessdata: b0a701c300000000d02973c000000000000080bf000000008563ef410000000033e9ef4200000000000080bf000000000040ff42000000002f2a73c000000000000080bf000000008593e5c100000000c84fe8c200000000000080bf00000000b0a701c300000000002a73c097217ebf00000000db01f7bd8063ef410000000033e9ef42deb691be00000000e269753f0040ff4200000000002a73c0ef807e3f00000000ea1bdd3d8093e5c100000000c84fe8c2e038863e00000000f90b77bfb0a701c30000803f002a73c071e75abf00000000a3ba043f8063ef410000803f33e9ef42e58ba83e0000000036bb713f0040ff420000803f002a73c074e2593f00000000646506bf8093e5c10000803fc84fe8c2ed3899be000000008a4474bfb0a701c30000803f002a73c0000000000000803f000000008063ef410000803f33e9ef42000000000000803f000000000040ff420000803f002a73c0000000000000803f000000008093e5c10000803fc84fe8c2000000000000803f00000000
  m_CompressedMesh:
    m_Vertices:
      m_NumItems: 0
      m_Range: 0
      m_Start: 0
      m_Data: 
      m_BitSize: 0
    m_UV:
      m_NumItems: 0
      m_Range: 0
      m_Start: 0
      m_Data: 
      m_BitSize: 0
    m_Normals:
      m_NumItems: 0
      m_Range: 0
      m_Start: 0
      m_Data: 
      m_BitSize: 0
    m_Tangents:
      m_NumItems: 0
      m_Range: 0
      m_Start: 0
      m_Data: 
      m_BitSize: 0
    m_Weights:
      m_NumItems: 0
      m_Data: 
      m_BitSize: 0
    m_NormalSigns:
      m_NumItems: 0
      m_Data: 
      m_BitSize: 0
    m_TangentSigns:
      m_NumItems: 0
      m_Data: 
      m_BitSize: 0
    m_FloatColors:
      m_NumItems: 0
      m_Range: 0
      m_Start: 0
      m_Data: 
      m_BitSize: 0
    m_BoneIndices:
      m_NumItems: 0
      m_Data: 
      m_BitSize: 0
    m_Triangles:
      m_NumItems: 0
      m_Data: 
      m_BitSize: 0
    m_UVInfo: 0
  m_LocalAABB:
    m_Center: {x: -1.0150146, y: 0.5, z: 1.8998222}
    m_Extent: {x: 128.64001, y: 0.5, z: 118.05565}
  m_MeshUsageFlags: 0
  m_CookingOptions: 30
  m_BakedConvexCollisionMesh: 
  m_BakedTriangleCollisionMesh: 
  'm_MeshMetrics[0]': 1
  'm_MeshMetrics[1]': 1
  m_MeshOptimizationFlags: 1
  m_StreamData:
    serializedVersion: 2
    offset: 0
    size: 0
    path: 
