%YAML 1.1
%TAG !u! tag:unity3d.com,2011:
--- !u!43 &4300000
Mesh:
  m_ObjectHideFlags: 0
  m_CorrespondingSourceObject: {fileID: 0}
  m_PrefabInstance: {fileID: 0}
  m_PrefabAsset: {fileID: 0}
  m_Name: buildings236
  serializedVersion: 11
  m_SubMeshes:
  - serializedVersion: 2
    firstByte: 0
    indexCount: 36
    topology: 0
    baseVertex: 0
    firstVertex: 0
    vertexCount: 16
    localAABB:
      m_Center: {x: 0.6286011, y: 0.5, z: 1.2734375}
      m_Extent: {x: 20.354431, y: 0.5, z: 19.540041}
  m_Shapes:
    vertices: []
    shapes: []
    channels: []
    fullWeights: []
  m_BindPose: []
  m_BoneNameHashes: 
  m_RootBoneNameHash: 0
  m_BonesAABB: []
  m_VariableBoneCountWeights:
    m_Data: 
  m_MeshCompression: 0
  m_IsReadable: 1
  m_KeepVertices: 1
  m_KeepIndices: 1
  m_IndexFormat: 0
  m_IndexBuffer: 01000000030003000200010004000500080005000900080005000600090006000a000900060007000a0007000b000a00070004000b00040008000b000d000e000f000f000c000d00
  m_VertexData:
    serializedVersion: 3
    m_VertexCount: 16
    m_Channels:
    - stream: 0
      offset: 0
      format: 0
      dimension: 3
    - stream: 0
      offset: 12
      format: 0
      dimension: 3
    - stream: 0
      offset: 0
      format: 0
      dimension: 0
    - stream: 0
      offset: 0
      format: 0
      dimension: 0
    - stream: 0
      offset: 0
      format: 0
      dimension: 0
    - stream: 0
      offset: 0
      format: 0
      dimension: 0
    - stream: 0
      offset: 0
      format: 0
      dimension: 0
    - stream: 0
      offset: 0
      format: 0
      dimension: 0
    - stream: 0
      offset: 0
      format: 0
      dimension: 0
    - stream: 0
      offset: 0
      format: 0
      dimension: 0
    - stream: 0
      offset: 0
      format: 0
      dimension: 0
    - stream: 0
      offset: 0
      format: 0
      dimension: 0
    - stream: 0
      offset: 0
      format: 0
      dimension: 0
    - stream: 0
      offset: 0
      format: 0
      dimension: 0
    m_DataSize: 384
    _typelessdata: 7fce9dc1000000000182a64100000000000080bf0000000040dda74100000000f8b7394000000000000080bf000000003fdda74100000000012292c100000000ffff7fbf0000000080ce9dc100000000fcaba7c000000000000080bf0000000080ce9dc1000000000082a641c9a724bf000000009c05443f40dda7410000000000b839401ece123f0000000067b9513f40dda74100000000002292c1b794153f00000000e9c04fbf80ce9dc10000000000aca7c03aff09bf00000000399f57bf80ce9dc10000803f0082a641bb01f43d00000000302d7e3f40dda7410000803f00b839403d1e543f000000000e530f3f40dda7410000803f002292c1105475bd00000000598a7fbf80ce9dc10000803f00aca7c0361659bf000000005aae07bf80ce9dc10000803f0082a641000000000000803f0000000040dda7410000803f00b83940000000000000803f0000000040dda7410000803f002292c100000000ffff7f3f0000000080ce9dc10000803f00aca7c0000000000000803f00000000
  m_CompressedMesh:
    m_Vertices:
      m_NumItems: 0
      m_Range: 0
      m_Start: 0
      m_Data: 
      m_BitSize: 0
    m_UV:
      m_NumItems: 0
      m_Range: 0
      m_Start: 0
      m_Data: 
      m_BitSize: 0
    m_Normals:
      m_NumItems: 0
      m_Range: 0
      m_Start: 0
      m_Data: 
      m_BitSize: 0
    m_Tangents:
      m_NumItems: 0
      m_Range: 0
      m_Start: 0
      m_Data: 
      m_BitSize: 0
    m_Weights:
      m_NumItems: 0
      m_Data: 
      m_BitSize: 0
    m_NormalSigns:
      m_NumItems: 0
      m_Data: 
      m_BitSize: 0
    m_TangentSigns:
      m_NumItems: 0
      m_Data: 
      m_BitSize: 0
    m_FloatColors:
      m_NumItems: 0
      m_Range: 0
      m_Start: 0
      m_Data: 
      m_BitSize: 0
    m_BoneIndices:
      m_NumItems: 0
      m_Data: 
      m_BitSize: 0
    m_Triangles:
      m_NumItems: 0
      m_Data: 
      m_BitSize: 0
    m_UVInfo: 0
  m_LocalAABB:
    m_Center: {x: 0.6286011, y: 0.5, z: 1.2734375}
    m_Extent: {x: 20.354431, y: 0.5, z: 19.540041}
  m_MeshUsageFlags: 0
  m_CookingOptions: 30
  m_BakedConvexCollisionMesh: 
  m_BakedTriangleCollisionMesh: 
  'm_MeshMetrics[0]': 1
  'm_MeshMetrics[1]': 1
  m_MeshOptimizationFlags: 1
  m_StreamData:
    serializedVersion: 2
    offset: 0
    size: 0
    path: 
