%YAML 1.1
%TAG !u! tag:unity3d.com,2011:
--- !u!43 &4300000
Mesh:
  m_ObjectHideFlags: 0
  m_CorrespondingSourceObject: {fileID: 0}
  m_PrefabInstance: {fileID: 0}
  m_PrefabAsset: {fileID: 0}
  m_Name: buildings177
  serializedVersion: 11
  m_SubMeshes:
  - serializedVersion: 2
    firstByte: 0
    indexCount: 48
    topology: 0
    baseVertex: 0
    firstVertex: 0
    vertexCount: 20
    localAABB:
      m_Center: {x: -0.62957764, y: 0.5, z: 4.10205}
      m_Extent: {x: 26.867859, y: 0.5, z: 32.566895}
  m_Shapes:
    vertices: []
    shapes: []
    channels: []
    fullWeights: []
  m_BindPose: []
  m_BoneNameHashes: 
  m_RootBoneNameHash: 0
  m_BonesAABB: []
  m_VariableBoneCountWeights:
    m_Data: 
  m_MeshCompression: 0
  m_IsReadable: 1
  m_KeepVertices: 1
  m_KeepIndices: 1
  m_IndexFormat: 0
  m_IndexBuffer: 040003000200000004000200010000000200050006000a0006000b000a00060007000b0007000c000b00070008000c0008000d000c00080009000d0009000e000d00090005000e0005000a000e0011000f001000110013000f00110012001300
  m_VertexData:
    serializedVersion: 3
    m_VertexCount: 20
    m_Channels:
    - stream: 0
      offset: 0
      format: 0
      dimension: 3
    - stream: 0
      offset: 12
      format: 0
      dimension: 3
    - stream: 0
      offset: 0
      format: 0
      dimension: 0
    - stream: 0
      offset: 0
      format: 0
      dimension: 0
    - stream: 0
      offset: 0
      format: 0
      dimension: 0
    - stream: 0
      offset: 0
      format: 0
      dimension: 0
    - stream: 0
      offset: 0
      format: 0
      dimension: 0
    - stream: 0
      offset: 0
      format: 0
      dimension: 0
    - stream: 0
      offset: 0
      format: 0
      dimension: 0
    - stream: 0
      offset: 0
      format: 0
      dimension: 0
    - stream: 0
      offset: 0
      format: 0
      dimension: 0
    - stream: 0
      offset: 0
      format: 0
      dimension: 0
    - stream: 0
      offset: 0
      format: 0
      dimension: 0
    - stream: 0
      offset: 0
      format: 0
      dimension: 0
    m_DataSize: 480
    _typelessdata: bffadbc1000000000108894100000000ffff7fbf00000000436253410000000000ad124200000000ffff7fbf0000000000e8d14100000000fb77eb4000000000ffff7fbf00000000ffe0c4410000000001b8e3c100000000000080bf00000000c1f3cec100000000ff2dd0c100000000000080bf00000000c0fadbc100000000000889413d5671bf00000000d9caaa3e406253410000000000ad12427eb9d2bd000000002aa47e3f00e8d141000000000078eb407dd8773f000000001132803e00e1c4410000000000b8e3c17b334a3f0000000065011dbfc0f3cec100000000002ed0c1e11ed9be0000000086d767bfc0fadbc10000803f0008894111ba37bf000000004e45323f406253410000803f00ad1242c753013f0000000050ee5c3f00e8d1410000803f0078eb4043cf7e3f000000003a45c53d00e1c4410000803f00b8e3c1bad5933e00000000a91875bfc0f3cec10000803f002ed0c105fc5abf00000000b19804bfc0fadbc10000803f0008894100000000ffff7f3f00000000406253410000803f00ad124200000000ffff7f3f0000000000e8d1410000803f0078eb4000000000ffff7f3f0000000000e1c4410000803f00b8e3c1000000000000803f00000000c0f3cec10000803f002ed0c1000000000000803f00000000
  m_CompressedMesh:
    m_Vertices:
      m_NumItems: 0
      m_Range: 0
      m_Start: 0
      m_Data: 
      m_BitSize: 0
    m_UV:
      m_NumItems: 0
      m_Range: 0
      m_Start: 0
      m_Data: 
      m_BitSize: 0
    m_Normals:
      m_NumItems: 0
      m_Range: 0
      m_Start: 0
      m_Data: 
      m_BitSize: 0
    m_Tangents:
      m_NumItems: 0
      m_Range: 0
      m_Start: 0
      m_Data: 
      m_BitSize: 0
    m_Weights:
      m_NumItems: 0
      m_Data: 
      m_BitSize: 0
    m_NormalSigns:
      m_NumItems: 0
      m_Data: 
      m_BitSize: 0
    m_TangentSigns:
      m_NumItems: 0
      m_Data: 
      m_BitSize: 0
    m_FloatColors:
      m_NumItems: 0
      m_Range: 0
      m_Start: 0
      m_Data: 
      m_BitSize: 0
    m_BoneIndices:
      m_NumItems: 0
      m_Data: 
      m_BitSize: 0
    m_Triangles:
      m_NumItems: 0
      m_Data: 
      m_BitSize: 0
    m_UVInfo: 0
  m_LocalAABB:
    m_Center: {x: -0.62957764, y: 0.5, z: 4.10205}
    m_Extent: {x: 26.867859, y: 0.5, z: 32.566895}
  m_MeshUsageFlags: 0
  m_CookingOptions: 30
  m_BakedConvexCollisionMesh: 
  m_BakedTriangleCollisionMesh: 
  'm_MeshMetrics[0]': 1
  'm_MeshMetrics[1]': 1
  m_MeshOptimizationFlags: 1
  m_StreamData:
    serializedVersion: 2
    offset: 0
    size: 0
    path: 
