%YAML 1.1
%TAG !u! tag:unity3d.com,2011:
--- !u!43 &4300000
Mesh:
  m_ObjectHideFlags: 0
  m_CorrespondingSourceObject: {fileID: 0}
  m_PrefabInstance: {fileID: 0}
  m_PrefabAsset: {fileID: 0}
  m_Name: buildings26
  serializedVersion: 11
  m_SubMeshes:
  - serializedVersion: 2
    firstByte: 0
    indexCount: 48
    topology: 0
    baseVertex: 0
    firstVertex: 0
    vertexCount: 20
    localAABB:
      m_Center: {x: 0.83529663, y: 0.5, z: -1.4473572}
      m_Extent: {x: 69.61209, y: 0.5, z: 16.283545}
  m_Shapes:
    vertices: []
    shapes: []
    channels: []
    fullWeights: []
  m_BindPose: []
  m_BoneNameHashes: 
  m_RootBoneNameHash: 0
  m_BonesAABB: []
  m_VariableBoneCountWeights:
    m_Data: 
  m_MeshCompression: 0
  m_IsReadable: 1
  m_KeepVertices: 1
  m_KeepIndices: 1
  m_IndexFormat: 0
  m_IndexBuffer: 010003000200040003000100000004000100050006000a0006000b000a00060007000b0007000c000b00070008000c0008000d000c00080009000d0009000e000d00090005000e0005000a000e00100013000f00100012001300110012001000
  m_VertexData:
    serializedVersion: 3
    m_VertexCount: 20
    m_Channels:
    - stream: 0
      offset: 0
      format: 0
      dimension: 3
    - stream: 0
      offset: 12
      format: 0
      dimension: 3
    - stream: 0
      offset: 0
      format: 0
      dimension: 0
    - stream: 0
      offset: 0
      format: 0
      dimension: 0
    - stream: 0
      offset: 0
      format: 0
      dimension: 0
    - stream: 0
      offset: 0
      format: 0
      dimension: 0
    - stream: 0
      offset: 0
      format: 0
      dimension: 0
    - stream: 0
      offset: 0
      format: 0
      dimension: 0
    - stream: 0
      offset: 0
      format: 0
      dimension: 0
    - stream: 0
      offset: 0
      format: 0
      dimension: 0
    - stream: 0
      offset: 0
      format: 0
      dimension: 0
    - stream: 0
      offset: 0
      format: 0
      dimension: 0
    - stream: 0
      offset: 0
      format: 0
      dimension: 0
    - stream: 0
      offset: 0
      format: 0
      dimension: 0
    m_DataSize: 480
    _typelessdata: b88d89c20000000006616d4100000000000080bf00000000981107c200000000035a604100000000ffff7fbf0000000058a38942000000000d8896c000000000000080bf0000000010e58c4200000000e3d88dc100000000000080bf0000000028ab84c20000000018e7274000000000ffff7fbf00000000b88d89c20000000000616d41feeb1dbf00000000797c493f981107c200000000005a604132d9ef3d00000000053d7e3f58a3894200000000008896c0d1d2723e00000000bdb2783f10e58c4200000000e0d88dc172ab2e3d0000000063c47fbf28ab84c20000000000e7274056d440be00000000896b7bbfb88d89c20000803f00616d4119741ebe00000000a3ea7c3f981107c20000803f005a6041311d213e00000000bccf7c3f58a389420000803f008896c0db7ec73e0000000084c46b3f10e58c420000803fe0d88dc12068cfbd000000000faf7ebf28ab84c20000803f00e7274055509abe000000008e1874bfb88d89c20000803f00616d41000000000000803f00000000981107c20000803f005a604100000000ffff7f3f0000000058a389420000803f008896c0000000000000803f0000000010e58c420000803fe0d88dc1000000000000803f0000000028ab84c20000803f00e7274000000000ffff7f3f00000000
  m_CompressedMesh:
    m_Vertices:
      m_NumItems: 0
      m_Range: 0
      m_Start: 0
      m_Data: 
      m_BitSize: 0
    m_UV:
      m_NumItems: 0
      m_Range: 0
      m_Start: 0
      m_Data: 
      m_BitSize: 0
    m_Normals:
      m_NumItems: 0
      m_Range: 0
      m_Start: 0
      m_Data: 
      m_BitSize: 0
    m_Tangents:
      m_NumItems: 0
      m_Range: 0
      m_Start: 0
      m_Data: 
      m_BitSize: 0
    m_Weights:
      m_NumItems: 0
      m_Data: 
      m_BitSize: 0
    m_NormalSigns:
      m_NumItems: 0
      m_Data: 
      m_BitSize: 0
    m_TangentSigns:
      m_NumItems: 0
      m_Data: 
      m_BitSize: 0
    m_FloatColors:
      m_NumItems: 0
      m_Range: 0
      m_Start: 0
      m_Data: 
      m_BitSize: 0
    m_BoneIndices:
      m_NumItems: 0
      m_Data: 
      m_BitSize: 0
    m_Triangles:
      m_NumItems: 0
      m_Data: 
      m_BitSize: 0
    m_UVInfo: 0
  m_LocalAABB:
    m_Center: {x: 0.83529663, y: 0.5, z: -1.4473572}
    m_Extent: {x: 69.61209, y: 0.5, z: 16.283545}
  m_MeshUsageFlags: 0
  m_CookingOptions: 30
  m_BakedConvexCollisionMesh: 
  m_BakedTriangleCollisionMesh: 
  'm_MeshMetrics[0]': 1
  'm_MeshMetrics[1]': 1
  m_MeshOptimizationFlags: 1
  m_StreamData:
    serializedVersion: 2
    offset: 0
    size: 0
    path: 
