%YAML 1.1
%TAG !u! tag:unity3d.com,2011:
--- !u!43 &4300000
Mesh:
  m_ObjectHideFlags: 0
  m_CorrespondingSourceObject: {fileID: 0}
  m_PrefabInstance: {fileID: 0}
  m_PrefabAsset: {fileID: 0}
  m_Name: buildings256
  serializedVersion: 11
  m_SubMeshes:
  - serializedVersion: 2
    firstByte: 0
    indexCount: 36
    topology: 0
    baseVertex: 0
    firstVertex: 0
    vertexCount: 16
    localAABB:
      m_Center: {x: -1.6030426, y: 0.5, z: 0.81762695}
      m_Extent: {x: 26.053635, y: 0.5, z: 21.168701}
  m_Shapes:
    vertices: []
    shapes: []
    channels: []
    fullWeights: []
  m_BindPose: []
  m_BoneNameHashes: 
  m_RootBoneNameHash: 0
  m_BonesAABB: []
  m_VariableBoneCountWeights:
    m_Data: 
  m_MeshCompression: 0
  m_IsReadable: 1
  m_KeepVertices: 1
  m_KeepIndices: 1
  m_IndexFormat: 0
  m_IndexBuffer: 02000100000003000200000004000500080005000900080005000600090006000a000900060007000a0007000b000a00070004000b00040008000b000c000e000f000c000d000e00
  m_VertexData:
    serializedVersion: 3
    m_VertexCount: 16
    m_Channels:
    - stream: 0
      offset: 0
      format: 0
      dimension: 3
    - stream: 0
      offset: 12
      format: 0
      dimension: 3
    - stream: 0
      offset: 0
      format: 0
      dimension: 0
    - stream: 0
      offset: 0
      format: 0
      dimension: 0
    - stream: 0
      offset: 0
      format: 0
      dimension: 0
    - stream: 0
      offset: 0
      format: 0
      dimension: 0
    - stream: 0
      offset: 0
      format: 0
      dimension: 0
    - stream: 0
      offset: 0
      format: 0
      dimension: 0
    - stream: 0
      offset: 0
      format: 0
      dimension: 0
    - stream: 0
      offset: 0
      format: 0
      dimension: 0
    - stream: 0
      offset: 0
      format: 0
      dimension: 0
    - stream: 0
      offset: 0
      format: 0
      dimension: 0
    - stream: 0
      offset: 0
      format: 0
      dimension: 0
    - stream: 0
      offset: 0
      format: 0
      dimension: 0
    m_DataSize: 384
    _typelessdata: e040ddc1000000000598ea4000000000ffff7fbf00000000318da94100000000ffe3af4100000000000080bf00000000d09ac34100000000024c29c100000000ffff7fbf00000000b11e9cc100000000ffcea2c100000000000080bf00000000e040ddc1000000000098ea40df1e68bf000000001aedd73e308da9410000000000e4af41cb10043d00000000eddd7f3fd09ac34100000000004c29c138f9643f0000000007f9e4beb01e9cc10000000000cfa2c13df2acbd00000000e9157fbfe040ddc10000803f0098ea40c77009bf0000000022fa573f308da9410000803f00e4af416f7b2c3f00000000f12b3d3fd09ac3410000803f004c29c1442b063f0000000045065abfb01e9cc10000803f00cfa2c1747b1abf00000000a4224cbfe040ddc10000803f0098ea4000000000ffff7f3f00000000308da9410000803f00e4af41000000000000803f00000000d09ac3410000803f004c29c100000000ffff7f3f00000000b01e9cc10000803f00cfa2c1000000000000803f00000000
  m_CompressedMesh:
    m_Vertices:
      m_NumItems: 0
      m_Range: 0
      m_Start: 0
      m_Data: 
      m_BitSize: 0
    m_UV:
      m_NumItems: 0
      m_Range: 0
      m_Start: 0
      m_Data: 
      m_BitSize: 0
    m_Normals:
      m_NumItems: 0
      m_Range: 0
      m_Start: 0
      m_Data: 
      m_BitSize: 0
    m_Tangents:
      m_NumItems: 0
      m_Range: 0
      m_Start: 0
      m_Data: 
      m_BitSize: 0
    m_Weights:
      m_NumItems: 0
      m_Data: 
      m_BitSize: 0
    m_NormalSigns:
      m_NumItems: 0
      m_Data: 
      m_BitSize: 0
    m_TangentSigns:
      m_NumItems: 0
      m_Data: 
      m_BitSize: 0
    m_FloatColors:
      m_NumItems: 0
      m_Range: 0
      m_Start: 0
      m_Data: 
      m_BitSize: 0
    m_BoneIndices:
      m_NumItems: 0
      m_Data: 
      m_BitSize: 0
    m_Triangles:
      m_NumItems: 0
      m_Data: 
      m_BitSize: 0
    m_UVInfo: 0
  m_LocalAABB:
    m_Center: {x: -1.6030426, y: 0.5, z: 0.81762695}
    m_Extent: {x: 26.053635, y: 0.5, z: 21.168701}
  m_MeshUsageFlags: 0
  m_CookingOptions: 30
  m_BakedConvexCollisionMesh: 
  m_BakedTriangleCollisionMesh: 
  'm_MeshMetrics[0]': 1
  'm_MeshMetrics[1]': 1
  m_MeshOptimizationFlags: 1
  m_StreamData:
    serializedVersion: 2
    offset: 0
    size: 0
    path: 
