%YAML 1.1
%TAG !u! tag:unity3d.com,2011:
--- !u!43 &4300000
Mesh:
  m_ObjectHideFlags: 0
  m_CorrespondingSourceObject: {fileID: 0}
  m_PrefabInstance: {fileID: 0}
  m_PrefabAsset: {fileID: 0}
  m_Name: buildings313
  serializedVersion: 11
  m_SubMeshes:
  - serializedVersion: 2
    firstByte: 0
    indexCount: 36
    topology: 0
    baseVertex: 0
    firstVertex: 0
    vertexCount: 16
    localAABB:
      m_Center: {x: 0.5675659, y: 0.5, z: -1.4262009}
      m_Extent: {x: 88.74518, y: 0.5, z: 74.9042}
  m_Shapes:
    vertices: []
    shapes: []
    channels: []
    fullWeights: []
  m_BindPose: []
  m_BoneNameHashes: 
  m_RootBoneNameHash: 0
  m_BonesAABB: []
  m_VariableBoneCountWeights:
    m_Data: 
  m_MeshCompression: 0
  m_IsReadable: 1
  m_KeepVertices: 1
  m_KeepIndices: 1
  m_IndexFormat: 0
  m_IndexBuffer: 01000000030003000200010004000500080005000900080005000600090006000a000900060007000a0007000b000a00070004000b00040008000b000d000e000f000f000c000d00
  m_VertexData:
    serializedVersion: 3
    m_VertexCount: 16
    m_Channels:
    - stream: 0
      offset: 0
      format: 0
      dimension: 3
    - stream: 0
      offset: 12
      format: 0
      dimension: 3
    - stream: 0
      offset: 0
      format: 0
      dimension: 0
    - stream: 0
      offset: 0
      format: 0
      dimension: 0
    - stream: 0
      offset: 0
      format: 0
      dimension: 0
    - stream: 0
      offset: 0
      format: 0
      dimension: 0
    - stream: 0
      offset: 0
      format: 0
      dimension: 0
    - stream: 0
      offset: 0
      format: 0
      dimension: 0
    - stream: 0
      offset: 0
      format: 0
      dimension: 0
    - stream: 0
      offset: 0
      format: 0
      dimension: 0
    - stream: 0
      offset: 0
      format: 0
      dimension: 0
    - stream: 0
      offset: 0
      format: 0
      dimension: 0
    - stream: 0
      offset: 0
      format: 0
      dimension: 0
    - stream: 0
      offset: 0
      format: 0
      dimension: 0
    m_DataSize: 384
    _typelessdata: f05ab0c2000000003c8a28c200000000000080bf0000000082785c4200000000bbf4924200000000000080bf0000000020a0b24200000000ff9d164200000000000080bf00000000a10486c20000000029a998c200000000000080bf00000000f05ab0c2000000003e8a28c2d26f60bf000000000e49f63e80785c4200000000bcf49242412d05bf00000000cba15a3f20a0b24200000000019e1642475b673f00000000792edbbea00486c2000000002aa998c24c85003f00000000ac665dbff05ab0c20000803f3e8a28c2e60435bf000000000105353f80785c420000803fbcf49242e53b50be00000000a7a67a3f20a0b2420000803f019e16420410303f000000000dd839bfa00486c20000803f2aa998c2b00f653e000000004e8379bff05ab0c20000803f3e8a28c2000000000000803f0000000080785c420000803fbcf49242000000000000803f0000000020a0b2420000803f019e1642000000000000803f00000000a00486c20000803f2aa998c2000000000000803f00000000
  m_CompressedMesh:
    m_Vertices:
      m_NumItems: 0
      m_Range: 0
      m_Start: 0
      m_Data: 
      m_BitSize: 0
    m_UV:
      m_NumItems: 0
      m_Range: 0
      m_Start: 0
      m_Data: 
      m_BitSize: 0
    m_Normals:
      m_NumItems: 0
      m_Range: 0
      m_Start: 0
      m_Data: 
      m_BitSize: 0
    m_Tangents:
      m_NumItems: 0
      m_Range: 0
      m_Start: 0
      m_Data: 
      m_BitSize: 0
    m_Weights:
      m_NumItems: 0
      m_Data: 
      m_BitSize: 0
    m_NormalSigns:
      m_NumItems: 0
      m_Data: 
      m_BitSize: 0
    m_TangentSigns:
      m_NumItems: 0
      m_Data: 
      m_BitSize: 0
    m_FloatColors:
      m_NumItems: 0
      m_Range: 0
      m_Start: 0
      m_Data: 
      m_BitSize: 0
    m_BoneIndices:
      m_NumItems: 0
      m_Data: 
      m_BitSize: 0
    m_Triangles:
      m_NumItems: 0
      m_Data: 
      m_BitSize: 0
    m_UVInfo: 0
  m_LocalAABB:
    m_Center: {x: 0.5675659, y: 0.5, z: -1.4262009}
    m_Extent: {x: 88.74518, y: 0.5, z: 74.9042}
  m_MeshUsageFlags: 0
  m_CookingOptions: 30
  m_BakedConvexCollisionMesh: 
  m_BakedTriangleCollisionMesh: 
  'm_MeshMetrics[0]': 1
  'm_MeshMetrics[1]': 1
  m_MeshOptimizationFlags: 1
  m_StreamData:
    serializedVersion: 2
    offset: 0
    size: 0
    path: 
