%YAML 1.1
%TAG !u! tag:unity3d.com,2011:
--- !u!43 &4300000
Mesh:
  m_ObjectHideFlags: 0
  m_CorrespondingSourceObject: {fileID: 0}
  m_PrefabInstance: {fileID: 0}
  m_PrefabAsset: {fileID: 0}
  m_Name: buildings225
  serializedVersion: 11
  m_SubMeshes:
  - serializedVersion: 2
    firstByte: 0
    indexCount: 48
    topology: 0
    baseVertex: 0
    firstVertex: 0
    vertexCount: 20
    localAABB:
      m_Center: {x: 1.0554199, y: 0.5, z: 2.319334}
      m_Extent: {x: 61.87744, y: 0.5, z: 59.43506}
  m_Shapes:
    vertices: []
    shapes: []
    channels: []
    fullWeights: []
  m_BindPose: []
  m_BoneNameHashes: 
  m_RootBoneNameHash: 0
  m_BonesAABB: []
  m_VariableBoneCountWeights:
    m_Data: 
  m_MeshCompression: 0
  m_IsReadable: 1
  m_KeepVertices: 1
  m_KeepIndices: 1
  m_IndexFormat: 0
  m_IndexBuffer: 030002000100030001000000000004000300050006000a0006000b000a00060007000b0007000c000b00070008000c0008000d000c00080009000d0009000e000d00090005000e0005000a000e00120013000f000f0010001200100011001200
  m_VertexData:
    serializedVersion: 3
    m_VertexCount: 20
    m_Channels:
    - stream: 0
      offset: 0
      format: 0
      dimension: 3
    - stream: 0
      offset: 12
      format: 0
      dimension: 3
    - stream: 0
      offset: 0
      format: 0
      dimension: 0
    - stream: 0
      offset: 0
      format: 0
      dimension: 0
    - stream: 0
      offset: 0
      format: 0
      dimension: 0
    - stream: 0
      offset: 0
      format: 0
      dimension: 0
    - stream: 0
      offset: 0
      format: 0
      dimension: 0
    - stream: 0
      offset: 0
      format: 0
      dimension: 0
    - stream: 0
      offset: 0
      format: 0
      dimension: 0
    - stream: 0
      offset: 0
      format: 0
      dimension: 0
    - stream: 0
      offset: 0
      format: 0
      dimension: 0
    - stream: 0
      offset: 0
      format: 0
      dimension: 0
    - stream: 0
      offset: 0
      format: 0
      dimension: 0
    - stream: 0
      offset: 0
      format: 0
      dimension: 0
    m_DataSize: 480
    _typelessdata: bde093c1000000008004774200000000000080bf0000000040bb7b4200000000d29fc03f00000000000080bf000000003dedf24100000000817664c200000000000080bf00000000618f04c2000000007fc202c200000000000080bf00000000c04973c20000000006744e4100000000000080bf00000000c0e093c10000000080047742d23f61be00000000ceba793f40bb7b420000000000a0c03f6c094f3f000000004d92163f40edf24100000000807664c2f4c9153f000000008b9a4fbf608f04c20000000080c202c2fd6505bf00000000307f5abfc04973c20000000000744e4147e67ebf0000000040b1bdbdc0e093c10000803f8004774269cca83e00000000f5af713f40bb7b420000803f00a0c03feded7e3f00000000b61abb3d40edf2410000803f807664c277477a3d000000008b857fbf608f04c20000803f80c202c2bf7c32bf00000000378437bfc04973c20000803f00744e4140e06dbf000000004038bd3ec0e093c10000803f80047742000000000000803f0000000040bb7b420000803f00a0c03f000000000000803f0000000040edf2410000803f807664c2000000000000803f00000000608f04c20000803f80c202c2000000000000803f00000000c04973c20000803f00744e41000000000000803f00000000
  m_CompressedMesh:
    m_Vertices:
      m_NumItems: 0
      m_Range: 0
      m_Start: 0
      m_Data: 
      m_BitSize: 0
    m_UV:
      m_NumItems: 0
      m_Range: 0
      m_Start: 0
      m_Data: 
      m_BitSize: 0
    m_Normals:
      m_NumItems: 0
      m_Range: 0
      m_Start: 0
      m_Data: 
      m_BitSize: 0
    m_Tangents:
      m_NumItems: 0
      m_Range: 0
      m_Start: 0
      m_Data: 
      m_BitSize: 0
    m_Weights:
      m_NumItems: 0
      m_Data: 
      m_BitSize: 0
    m_NormalSigns:
      m_NumItems: 0
      m_Data: 
      m_BitSize: 0
    m_TangentSigns:
      m_NumItems: 0
      m_Data: 
      m_BitSize: 0
    m_FloatColors:
      m_NumItems: 0
      m_Range: 0
      m_Start: 0
      m_Data: 
      m_BitSize: 0
    m_BoneIndices:
      m_NumItems: 0
      m_Data: 
      m_BitSize: 0
    m_Triangles:
      m_NumItems: 0
      m_Data: 
      m_BitSize: 0
    m_UVInfo: 0
  m_LocalAABB:
    m_Center: {x: 1.0554199, y: 0.5, z: 2.319334}
    m_Extent: {x: 61.87744, y: 0.5, z: 59.43506}
  m_MeshUsageFlags: 0
  m_CookingOptions: 30
  m_BakedConvexCollisionMesh: 
  m_BakedTriangleCollisionMesh: 
  'm_MeshMetrics[0]': 1
  'm_MeshMetrics[1]': 1
  m_MeshOptimizationFlags: 1
  m_StreamData:
    serializedVersion: 2
    offset: 0
    size: 0
    path: 
