%YAML 1.1
%TAG !u! tag:unity3d.com,2011:
--- !u!43 &4300000
Mesh:
  m_ObjectHideFlags: 0
  m_CorrespondingSourceObject: {fileID: 0}
  m_PrefabInstance: {fileID: 0}
  m_PrefabAsset: {fileID: 0}
  m_Name: buildings57
  serializedVersion: 11
  m_SubMeshes:
  - serializedVersion: 2
    firstByte: 0
    indexCount: 36
    topology: 0
    baseVertex: 0
    firstVertex: 0
    vertexCount: 16
    localAABB:
      m_Center: {x: 0.1156311, y: 0.5, z: 1.6885986}
      m_Extent: {x: 32.159943, y: 0.5, z: 58.62073}
  m_Shapes:
    vertices: []
    shapes: []
    channels: []
    fullWeights: []
  m_BindPose: []
  m_BoneNameHashes: 
  m_RootBoneNameHash: 0
  m_BonesAABB: []
  m_VariableBoneCountWeights:
    m_Data: 
  m_MeshCompression: 0
  m_IsReadable: 1
  m_KeepVertices: 1
  m_KeepIndices: 1
  m_IndexFormat: 0
  m_IndexBuffer: 03000200010000000300010004000500080005000900080005000600090006000a000900060007000a0007000b000a00070004000b00040008000b000d000f000c000d000e000f00
  m_VertexData:
    serializedVersion: 3
    m_VertexCount: 16
    m_Channels:
    - stream: 0
      offset: 0
      format: 0
      dimension: 3
    - stream: 0
      offset: 12
      format: 0
      dimension: 3
    - stream: 0
      offset: 0
      format: 0
      dimension: 0
    - stream: 0
      offset: 0
      format: 0
      dimension: 0
    - stream: 0
      offset: 0
      format: 0
      dimension: 0
    - stream: 0
      offset: 0
      format: 0
      dimension: 0
    - stream: 0
      offset: 0
      format: 0
      dimension: 0
    - stream: 0
      offset: 0
      format: 0
      dimension: 0
    - stream: 0
      offset: 0
      format: 0
      dimension: 0
    - stream: 0
      offset: 0
      format: 0
      dimension: 0
    - stream: 0
      offset: 0
      format: 0
      dimension: 0
    - stream: 0
      offset: 0
      format: 0
      dimension: 0
    - stream: 0
      offset: 0
      format: 0
      dimension: 0
    - stream: 0
      offset: 0
      format: 0
      dimension: 0
    m_DataSize: 384
    _typelessdata: 5f2d00c200000000c13c714200000000000080bf00000000c5a10a4100000000002f574200000000000080bf000000002f1a01420000000081ba63c200000000000080bf0000000085ee06c100000000007960c200000000000080bf00000000602d00c200000000c03c7142e1e47fbf000000002da4ebbcc0a10a4100000000002f5742e82e433f0000000013a6253f301a01420000000080ba63c275e37f3f0000000014b9f13c80ee06c100000000007960c291433fbf00000000b8282abf602d00c20000803fc03c71429d735fbf00000000cbd7f93ec0a10a410000803f002f574234d96e3f000000001841b83e301a01420000803f80ba63c27735623f000000007bb6efbe80ee06c10000803f007960c2e6986fbf00000000db52b4be602d00c20000803fc03c7142000000000000803f00000000c0a10a410000803f002f5742000000000000803f00000000301a01420000803f80ba63c2000000000000803f0000000080ee06c10000803f007960c2000000000000803f00000000
  m_CompressedMesh:
    m_Vertices:
      m_NumItems: 0
      m_Range: 0
      m_Start: 0
      m_Data: 
      m_BitSize: 0
    m_UV:
      m_NumItems: 0
      m_Range: 0
      m_Start: 0
      m_Data: 
      m_BitSize: 0
    m_Normals:
      m_NumItems: 0
      m_Range: 0
      m_Start: 0
      m_Data: 
      m_BitSize: 0
    m_Tangents:
      m_NumItems: 0
      m_Range: 0
      m_Start: 0
      m_Data: 
      m_BitSize: 0
    m_Weights:
      m_NumItems: 0
      m_Data: 
      m_BitSize: 0
    m_NormalSigns:
      m_NumItems: 0
      m_Data: 
      m_BitSize: 0
    m_TangentSigns:
      m_NumItems: 0
      m_Data: 
      m_BitSize: 0
    m_FloatColors:
      m_NumItems: 0
      m_Range: 0
      m_Start: 0
      m_Data: 
      m_BitSize: 0
    m_BoneIndices:
      m_NumItems: 0
      m_Data: 
      m_BitSize: 0
    m_Triangles:
      m_NumItems: 0
      m_Data: 
      m_BitSize: 0
    m_UVInfo: 0
  m_LocalAABB:
    m_Center: {x: 0.1156311, y: 0.5, z: 1.6885986}
    m_Extent: {x: 32.159943, y: 0.5, z: 58.62073}
  m_MeshUsageFlags: 0
  m_CookingOptions: 30
  m_BakedConvexCollisionMesh: 
  m_BakedTriangleCollisionMesh: 
  'm_MeshMetrics[0]': 1
  'm_MeshMetrics[1]': 1
  m_MeshOptimizationFlags: 1
  m_StreamData:
    serializedVersion: 2
    offset: 0
    size: 0
    path: 
