# This file uses centimeters as units for non-parametric coordinates.

mtllib M_window_01.mtl
g default
v -1.289683 -4.675788 0.051237
v 1.289683 -4.675788 0.051237
v 1.289683 4.675788 0.051237
v -1.289683 4.675788 0.051237
vt 0.375000 0.000000
vt 0.625000 0.000000
vt 0.625000 0.250000
vt 0.375000 0.250000
vn 0.000000 0.000000 1.000000
vn 0.000000 0.000000 1.000000
vn 0.000000 0.000000 1.000000
vn 0.000000 0.000000 1.000000
s off
g polySurface1 pCube1
usemtl initialShadingGroup
f 1/1/1 2/2/2 3/3/3 4/4/4
g default
v -1.455544 -5.109105 0.313402
v 1.455544 -5.109105 0.313402
v -1.455544 5.109105 0.313402
v 1.455544 5.109105 0.313402
v -1.453400 5.101578 -0.313402
v 1.453400 5.101578 -0.313402
v -1.453400 -5.101578 -0.313402
v 1.453400 -5.101578 -0.313402
v -1.455544 -5.109105 0.313402
v 1.455544 -5.109105 0.313402
v 1.455544 5.109105 0.313402
v -1.455544 5.109105 0.313402
v -1.376601 -4.832008 0.398718
v 1.376601 -4.832008 0.398718
v 1.376601 4.832008 0.398718
v -1.376601 4.832008 0.398718
v -1.289683 -4.675788 0.044011
v 1.289683 -4.675788 0.044011
v 1.289683 4.675788 0.044011
v -1.289683 4.675788 0.044011
vt 0.375000 0.250000
vt 0.625000 0.250000
vt 0.625000 0.500000
vt 0.375000 0.500000
vt 0.375000 0.750000
vt 0.625000 0.750000
vt 0.625000 1.000000
vt 0.375000 1.000000
vt 0.625000 0.000000
vt 0.875000 0.000000
vt 0.875000 0.250000
vt 0.125000 0.000000
vt 0.375000 0.000000
vt 0.125000 0.250000
vt 0.625000 0.000000
vt 0.375000 0.000000
vt 0.625000 0.250000
vt 0.375000 0.250000
vt 0.625000 0.000000
vt 0.375000 0.000000
vt 0.625000 0.250000
vt 0.375000 0.250000
vt 0.625000 0.000000
vt 0.375000 0.000000
vt 0.625000 0.250000
vt 0.375000 0.250000
vn 0.000000 0.999928 -0.012008
vn 0.000000 0.999928 -0.012008
vn 0.000000 0.999928 -0.012008
vn 0.000000 0.999928 -0.012008
vn 0.000000 -0.999928 -0.012008
vn 0.000000 -0.999928 -0.012008
vn 0.000000 -0.999928 -0.012008
vn 0.000000 -0.999928 -0.012008
vn 0.999994 0.000000 -0.003422
vn 0.999994 0.000000 -0.003422
vn 0.999994 0.000000 -0.003422
vn 0.999994 0.000000 -0.003422
vn -0.999994 0.000000 -0.003422
vn -0.999994 0.000000 -0.003422
vn -0.999994 0.000000 -0.003422
vn -0.999994 0.000000 -0.003422
vn 0.000000 0.000000 0.000000
vn 0.000000 0.000000 0.000000
vn 0.000000 0.000000 0.000000
vn 0.000000 0.000000 0.000000
vn 0.000000 0.000000 0.000000
vn 0.000000 0.000000 0.000000
vn 0.000000 0.000000 0.000000
vn 0.000000 0.000000 0.000000
vn 0.000000 0.000000 0.000000
vn 0.000000 0.000000 0.000000
vn 0.000000 0.000000 0.000000
vn 0.000000 0.000000 0.000000
vn 0.000000 0.000000 0.000000
vn 0.000000 0.000000 0.000000
vn 0.000000 0.000000 0.000000
vn 0.000000 0.000000 0.000000
vn 0.000000 -0.294261 0.955725
vn 0.000000 -0.294261 0.955725
vn 0.000000 -0.294261 0.955725
vn 0.000000 -0.294261 0.955725
vn 0.733990 0.000000 0.679161
vn 0.733990 0.000000 0.679161
vn 0.733990 0.000000 0.679161
vn 0.733990 0.000000 0.679161
vn 0.000000 0.294261 0.955725
vn 0.000000 0.294261 0.955725
vn 0.000000 0.294261 0.955725
vn 0.000000 0.294261 0.955725
vn -0.733990 0.000000 0.679161
vn -0.733990 0.000000 0.679161
vn -0.733990 0.000000 0.679161
vn -0.733990 0.000000 0.679161
vn 0.000000 0.915173 0.403061
vn 0.000000 0.915173 0.403061
vn 0.000000 0.915173 0.403061
vn 0.000000 0.915173 0.403061
vn -0.971265 0.000000 0.238000
vn -0.971265 0.000000 0.238000
vn -0.971265 0.000000 0.238000
vn -0.971265 0.000000 0.238000
vn 0.000000 -0.915173 0.403061
vn 0.000000 -0.915173 0.403061
vn 0.000000 -0.915173 0.403061
vn 0.000000 -0.915173 0.403061
vn 0.971265 0.000000 0.238000
vn 0.971265 0.000000 0.238000
vn 0.971265 0.000000 0.238000
vn 0.971265 0.000000 0.238000
s off
g pCube1 polySurface2
usemtl initialShadingGroup
f 7/5/5 8/6/6 10/7/7 9/8/8
f 11/9/9 12/10/10 6/11/11 5/12/12
f 6/13/13 12/14/14 10/15/15 8/6/16
f 11/16/17 5/17/18 7/5/19 9/18/20
f 5/17/21 6/13/22 14/19/23 13/20/24
f 6/13/25 8/6/26 15/21/27 14/19/28
f 8/6/29 7/5/30 16/22/31 15/21/32
f 7/5/33 5/17/34 13/20/35 16/22/36
f 13/20/37 14/19/38 18/23/39 17/24/40
f 14/19/41 15/21/42 19/25/43 18/23/44
f 15/21/45 16/22/46 20/26/47 19/25/48
f 16/22/49 13/20/50 17/24/51 20/26/52
f 17/24/53 18/23/54 22/27/55 21/28/56
f 18/23/57 19/25/58 23/29/59 22/27/60
f 19/25/61 20/26/62 24/30/63 23/29/64
f 20/26/65 17/24/66 21/28/67 24/30/68
g default
v -1.289683 -4.675788 0.051237
v 1.289683 -4.675788 0.051237
v 1.289683 4.675788 0.051237
v -1.289683 4.675788 0.051237
vt 0.375000 0.000000
vt 0.625000 0.000000
vt 0.625000 0.250000
vt 0.375000 0.250000
vn 0.000000 0.000000 1.000000
vn 0.000000 0.000000 1.000000
vn 0.000000 0.000000 1.000000
vn 0.000000 0.000000 1.000000
s off
g polySurface1 pCube1
f 25/31/69 26/32/70 27/33/71 28/34/72
g default
v -1.455544 -5.109105 0.313402
v 1.455544 -5.109105 0.313402
v -1.455544 5.109105 0.313402
v 1.455544 5.109105 0.313402
v -1.453400 5.101578 -0.313402
v 1.453400 5.101578 -0.313402
v -1.453400 -5.101578 -0.313402
v 1.453400 -5.101578 -0.313402
v -1.455544 -5.109105 0.313402
v 1.455544 -5.109105 0.313402
v 1.455544 5.109105 0.313402
v -1.455544 5.109105 0.313402
v -1.376601 -4.832008 0.398718
v 1.376601 -4.832008 0.398718
v 1.376601 4.832008 0.398718
v -1.376601 4.832008 0.398718
v -1.289683 -4.675788 0.044011
v 1.289683 -4.675788 0.044011
v 1.289683 4.675788 0.044011
v -1.289683 4.675788 0.044011
vt 0.375000 0.250000
vt 0.625000 0.250000
vt 0.625000 0.500000
vt 0.375000 0.500000
vt 0.375000 0.750000
vt 0.625000 0.750000
vt 0.625000 1.000000
vt 0.375000 1.000000
vt 0.625000 0.000000
vt 0.875000 0.000000
vt 0.875000 0.250000
vt 0.125000 0.000000
vt 0.375000 0.000000
vt 0.125000 0.250000
vt 0.625000 0.000000
vt 0.375000 0.000000
vt 0.625000 0.250000
vt 0.375000 0.250000
vt 0.625000 0.000000
vt 0.375000 0.000000
vt 0.625000 0.250000
vt 0.375000 0.250000
vt 0.625000 0.000000
vt 0.375000 0.000000
vt 0.625000 0.250000
vt 0.375000 0.250000
vn 0.000000 0.999928 -0.012008
vn 0.000000 0.999928 -0.012008
vn 0.000000 0.999928 -0.012008
vn 0.000000 0.999928 -0.012008
vn 0.000000 -0.999928 -0.012008
vn 0.000000 -0.999928 -0.012008
vn 0.000000 -0.999928 -0.012008
vn 0.000000 -0.999928 -0.012008
vn 0.999994 0.000000 -0.003422
vn 0.999994 0.000000 -0.003422
vn 0.999994 0.000000 -0.003422
vn 0.999994 0.000000 -0.003422
vn -0.999994 0.000000 -0.003422
vn -0.999994 0.000000 -0.003422
vn -0.999994 0.000000 -0.003422
vn -0.999994 0.000000 -0.003422
vn 0.000000 0.000000 0.000000
vn 0.000000 0.000000 0.000000
vn 0.000000 0.000000 0.000000
vn 0.000000 0.000000 0.000000
vn 0.000000 0.000000 0.000000
vn 0.000000 0.000000 0.000000
vn 0.000000 0.000000 0.000000
vn 0.000000 0.000000 0.000000
vn 0.000000 0.000000 0.000000
vn 0.000000 0.000000 0.000000
vn 0.000000 0.000000 0.000000
vn 0.000000 0.000000 0.000000
vn 0.000000 0.000000 0.000000
vn 0.000000 0.000000 0.000000
vn 0.000000 0.000000 0.000000
vn 0.000000 0.000000 0.000000
vn 0.000000 -0.294261 0.955725
vn 0.000000 -0.294261 0.955725
vn 0.000000 -0.294261 0.955725
vn 0.000000 -0.294261 0.955725
vn 0.733990 0.000000 0.679161
vn 0.733990 0.000000 0.679161
vn 0.733990 0.000000 0.679161
vn 0.733990 0.000000 0.679161
vn 0.000000 0.294261 0.955725
vn 0.000000 0.294261 0.955725
vn 0.000000 0.294261 0.955725
vn 0.000000 0.294261 0.955725
vn -0.733990 0.000000 0.679161
vn -0.733990 0.000000 0.679161
vn -0.733990 0.000000 0.679161
vn -0.733990 0.000000 0.679161
vn 0.000000 0.915173 0.403061
vn 0.000000 0.915173 0.403061
vn 0.000000 0.915173 0.403061
vn 0.000000 0.915173 0.403061
vn -0.971265 0.000000 0.238000
vn -0.971265 0.000000 0.238000
vn -0.971265 0.000000 0.238000
vn -0.971265 0.000000 0.238000
vn 0.000000 -0.915173 0.403061
vn 0.000000 -0.915173 0.403061
vn 0.000000 -0.915173 0.403061
vn 0.000000 -0.915173 0.403061
vn 0.971265 0.000000 0.238000
vn 0.971265 0.000000 0.238000
vn 0.971265 0.000000 0.238000
vn 0.971265 0.000000 0.238000
s off
g pCube1 polySurface2
f 31/35/73 32/36/74 34/37/75 33/38/76
f 35/39/77 36/40/78 30/41/79 29/42/80
f 30/43/81 36/44/82 34/45/83 32/36/84
f 35/46/85 29/47/86 31/35/87 33/48/88
f 29/47/89 30/43/90 38/49/91 37/50/92
f 30/43/93 32/36/94 39/51/95 38/49/96
f 32/36/97 31/35/98 40/52/99 39/51/100
f 31/35/101 29/47/102 37/50/103 40/52/104
f 37/50/105 38/49/106 42/53/107 41/54/108
f 38/49/109 39/51/110 43/55/111 42/53/112
f 39/51/113 40/52/114 44/56/115 43/55/116
f 40/52/117 37/50/118 41/54/119 44/56/120
f 41/54/121 42/53/122 46/57/123 45/58/124
f 42/53/125 43/55/126 47/59/127 46/57/128
f 43/55/129 44/56/130 48/60/131 47/59/132
f 44/56/133 41/54/134 45/58/135 48/60/136
