# This file uses centimeters as units for non-parametric coordinates.

mtllib route crois.mtl
g default
v -24.637604 -0.925936 134.612574
v -24.637604 -0.925936 111.499465
v -24.637604 0.925936 134.612574
v -24.637604 0.925936 111.499465
v -90.581162 0.925936 134.612574
v -90.581162 0.925936 111.499465
v -90.581162 -0.925936 134.612574
v -90.581162 -0.925936 111.499465
v -24.637604 -0.925936 132.961639
v -24.637604 0.925936 132.961639
v -90.581162 0.925936 132.961639
v -90.581162 -0.925936 132.961639
v -24.637604 -0.925936 113.150400
v -24.637604 0.925936 113.150400
v -90.581162 0.925936 113.150400
v -90.581162 -0.925936 113.150400
v -24.637604 0.008614 132.961639
v -90.581162 0.008614 132.961639
v -24.637604 0.034350 113.150400
v -90.581162 -0.017107 113.150400
v -90.581162 -0.213401 111.499465
v -24.637604 -0.213401 111.499465
v -24.637604 0.034338 134.612574
v -90.581162 0.034338 134.612574
v -45.806597 0.925936 134.587580
v -45.806597 -0.089531 134.587580
v -45.806597 -0.925936 134.587580
v -45.806597 -0.925936 111.491737
v -45.806597 -0.213401 111.491737
v -45.806597 0.925936 111.491737
v -45.790465 0.924382 113.150403
v -45.790465 0.016727 113.150403
v -45.790465 0.008614 132.961636
v -45.790465 0.926087 132.961636
v -68.914279 -0.925936 134.587580
v -68.914279 0.034338 134.587580
v -68.914279 0.925936 134.587580
v -68.892720 0.925528 132.961636
v -68.892720 0.008614 132.961636
v -68.892720 0.001042 113.150403
v -68.892720 0.926523 113.150403
v -68.914279 0.925936 111.491737
v -68.935838 0.034338 111.484012
v -68.914279 -0.925936 111.491737
v -68.935838 -0.925936 156.027801
v -45.822729 -0.925936 156.027801
v -68.935838 0.925936 156.027801
v -45.822729 0.925936 156.027801
v -68.935838 0.925936 90.084238
v -45.822729 0.925936 90.084238
v -68.935838 -0.925936 90.084238
v -45.822729 -0.925936 90.084238
v -67.284899 -0.925936 156.027801
v -67.284899 0.925936 156.027801
v -67.284899 0.925936 90.084238
v -67.284899 -0.925936 90.084238
v -47.473668 -0.925936 156.027801
v -47.473668 0.925936 156.027801
v -47.473668 0.925936 90.084238
v -47.473668 -0.925936 90.084238
v -67.284899 0.008614 156.027801
v -67.284899 0.008614 90.084238
v -47.473668 0.034350 156.027801
v -47.473668 -0.017107 90.084238
v -45.822729 -0.213401 90.084238
v -45.822729 -0.213401 156.027801
v -68.935838 0.034338 156.027801
v -68.935838 0.034338 90.084238
v -47.473668 0.925936 111.484012
v -47.473668 0.008622 111.501865
v -67.284899 0.008614 111.501865
v -67.284899 0.930310 111.492938
v -47.473663 0.930582 134.562587
v -47.473663 0.017601 134.562587
v -67.284904 0.008614 134.562587
v -67.284904 0.925528 134.562587
v -47.470772 0.012990 113.140845
v -67.295057 0.004829 113.140845
v -47.470767 0.012796 132.962127
v -67.295062 0.008614 132.962127
v -47.470772 0.923524 113.140845
v -67.295057 0.930899 113.140845
v -67.295062 0.925118 132.962127
v -47.470767 0.930423 132.962127
vt 0.990356 0.325670
vt 0.990543 0.350326
vt 0.994048 0.348287
vt 0.993956 0.323443
vt 0.997333 0.321353
vt 0.997523 0.346266
vt 0.677563 0.347380
vt 0.677179 0.322846
vt 0.001591 0.326898
vt 0.001676 0.351744
vt 0.003326 0.353764
vt 0.003287 0.329107
vt 0.992981 0.671534
vt 0.675452 0.672758
vt 0.676871 0.672487
vt 0.995664 0.671258
vt 0.675151 0.325215
vt 0.673497 0.327146
vt 0.677433 0.647398
vt 0.675727 0.349396
vt 0.996413 0.646276
vt 0.992793 0.646781
vt 0.679163 0.672050
vt 0.679261 0.646922
vt 0.999809 0.645802
vt 1.000000 0.670813
vt 0.003792 0.650232
vt 0.002187 0.649772
vt 0.002574 0.674724
vt 0.003831 0.674986
vt 0.000504 0.649289
vt 0.000542 0.674301
vt 0.000000 0.324827
vt 0.000039 0.349740
vt 0.327656 0.326138
vt 0.327697 0.324063
vt 0.327612 0.328351
vt 0.328564 0.673726
vt 0.328838 0.673968
vt 0.328936 0.673272
vt 0.329174 0.648142
vt 0.329123 0.648622
vt 0.328066 0.350607
vt 0.328110 0.348598
vt 0.326155 0.008809
vt 0.350819 0.008723
vt 0.350983 0.004909
vt 0.326192 0.004889
vt 0.326225 0.001213
vt 0.351145 0.001126
vt 0.352341 0.324355
vt 0.329711 0.996997
vt 0.354652 0.996872
vt 0.354468 0.995537
vt 0.329656 0.995624
vt 0.671448 0.007609
vt 0.672845 0.004700
vt 0.650281 0.325429
vt 0.352172 0.326488
vt 0.648538 0.003769
vt 0.646785 0.007694
vt 0.651977 0.323299
vt 0.650182 0.000087
vt 0.675102 0.000000
vt 0.652217 0.994496
vt 0.653914 0.995789
vt 0.678457 0.995422
vt 0.677030 0.994409
vt 0.655692 0.997145
vt 0.680764 0.997058
vt 0.329763 0.998285
vt 0.354834 0.998197
vt 0.653897 0.672255
vt 0.652178 0.672338
vt 0.353455 0.673380
vt 0.353633 0.673166
vt 0.650448 0.349468
vt 0.352108 0.350516
vt 0.353210 0.648680
vt 0.652093 0.647633
vt 0.653797 0.647156
vt 0.353386 0.648200
vt 0.352277 0.348507
vt 0.652154 0.347451
vn 1.000000 0.000000 0.000000
vn 1.000000 0.000000 0.000000
vn 1.000000 0.000000 0.000000
vn 1.000000 0.000000 0.000000
vn 0.000004 1.000000 0.000047
vn 0.000004 1.000000 0.000047
vn 0.000004 1.000000 0.000047
vn 0.000004 1.000000 0.000047
vn -1.000000 0.000000 0.000000
vn -1.000000 0.000000 0.000000
vn -1.000000 0.000000 0.000000
vn -1.000000 0.000000 0.000000
vn 0.000365 0.000000 -1.000000
vn 0.000365 0.000000 -1.000000
vn 0.000365 0.000000 -1.000000
vn 0.000365 0.000000 -1.000000
vn -0.001181 0.000000 0.999999
vn -0.001181 0.000001 0.999999
vn -0.001181 0.000001 0.999999
vn -0.001181 0.000000 0.999999
vn -0.000417 1.000000 0.000854
vn -0.000417 1.000000 0.000854
vn -0.000417 1.000000 0.000854
vn -0.000417 1.000000 0.000854
vn 1.000000 0.000000 0.000000
vn 1.000000 0.000000 0.000000
vn 1.000000 0.000000 0.000000
vn 1.000000 0.000000 0.000000
vn -0.000037 1.000000 0.000469
vn -0.000037 1.000000 0.000469
vn -0.000037 1.000000 0.000469
vn -0.000037 1.000000 0.000469
vn -1.000000 0.000000 0.000000
vn -1.000000 0.000000 0.000000
vn -1.000000 0.000000 0.000000
vn -1.000000 0.000000 0.000000
vn 0.000000 0.000000 -1.000000
vn 0.000000 0.000000 -1.000000
vn 0.000000 0.000000 -1.000000
vn 0.000000 0.000000 -1.000000
vn 0.000000 0.000000 1.000000
vn 0.000000 0.000000 1.000000
vn 0.000000 0.000000 1.000000
vn 0.000000 0.000000 1.000000
vn -1.000000 0.000000 0.000000
vn -1.000000 0.000000 0.000000
vn -1.000000 0.000000 0.000000
vn -1.000000 0.000000 0.000000
vn 0.000365 0.000000 -1.000000
vn 0.000365 0.000000 -1.000000
vn 0.000365 0.000001 -1.000000
vn 0.000365 0.000001 -1.000000
vn 1.000000 0.000000 0.000000
vn 1.000000 0.000000 0.000000
vn 1.000000 0.000000 0.000000
vn 1.000000 0.000000 0.000000
vn 1.000000 0.000000 0.000000
vn 1.000000 0.000000 0.000000
vn 1.000000 0.000000 0.000000
vn 1.000000 0.000000 0.000000
vn -0.001181 0.000000 0.999999
vn -0.001181 0.000000 0.999999
vn -0.001181 0.000000 0.999999
vn -0.001181 0.000000 0.999999
vn -1.000000 0.000000 0.000000
vn -1.000000 0.000000 0.000000
vn -1.000000 0.000000 0.000000
vn -1.000000 0.000000 0.000000
vn 1.000000 0.000000 0.000000
vn 1.000000 0.000000 0.000000
vn 1.000000 0.000000 0.000000
vn 1.000000 0.000000 0.000000
vn -1.000000 0.000000 0.000000
vn -1.000000 0.000000 0.000000
vn -1.000000 0.000000 0.000000
vn -1.000000 0.000000 0.000000
vn 0.001154 0.000000 0.999999
vn 0.001154 0.000000 0.999999
vn 0.001154 0.000000 0.999999
vn 0.001154 0.000000 0.999999
vn 0.001154 0.000001 0.999999
vn 0.001154 0.000001 0.999999
vn 0.001154 0.000000 0.999999
vn 0.001154 0.000000 0.999999
vn -0.000535 0.000033 -1.000000
vn -0.000509 -0.004625 -0.999989
vn -0.000509 -0.004625 -0.999989
vn -0.000535 -0.000030 -1.000000
vn -0.000557 0.003811 -0.999993
vn -0.000535 0.000033 -1.000000
vn -0.000535 -0.000030 -1.000000
vn -0.000557 0.003811 -0.999993
vn -0.000014 1.000000 -0.000178
vn -0.000014 1.000000 -0.000178
vn -0.000014 1.000000 -0.000178
vn -0.000014 1.000000 -0.000178
vn 0.000000 0.000000 1.000000
vn 0.000000 0.000000 1.000000
vn 0.000000 0.000000 1.000000
vn 0.000000 0.000000 1.000000
vn -0.000418 1.000000 -0.000840
vn -0.000418 1.000000 -0.000840
vn -0.000418 1.000000 -0.000840
vn -0.000418 1.000000 -0.000840
vn 0.000000 0.000000 -1.000000
vn 0.000000 0.000000 -1.000000
vn 0.000000 0.000000 -1.000000
vn 0.000000 0.000000 -1.000000
vn 0.000009 1.000000 -0.000125
vn 0.000009 1.000000 -0.000125
vn 0.000009 1.000000 -0.000125
vn 0.000009 1.000000 -0.000125
vn 0.000000 0.000000 1.000000
vn 0.000000 0.000000 1.000000
vn 0.000000 0.000000 1.000000
vn 0.000000 0.000000 1.000000
vn 0.000124 1.000000 -0.000009
vn 0.000124 1.000000 -0.000009
vn 0.000124 1.000000 -0.000009
vn 0.000124 1.000000 -0.000009
vn 0.000000 0.000000 -1.000000
vn 0.000000 0.000000 -1.000000
vn 0.000000 0.000000 -1.000000
vn 0.000000 0.000000 -1.000000
vn 1.000000 -0.000006 0.000752
vn 1.000000 -0.000006 0.000752
vn 1.000000 -0.000002 0.000752
vn 1.000000 -0.000002 0.000752
vn -1.000000 0.000002 -0.001006
vn -1.000000 0.000005 -0.001006
vn -1.000000 0.000005 -0.001006
vn -1.000000 0.000002 -0.001006
vn -0.000876 1.000000 -0.000390
vn -0.000876 1.000000 -0.000390
vn -0.000876 1.000000 -0.000390
vn -0.000876 1.000000 -0.000390
vn -0.000001 0.000000 1.000000
vn 0.000000 0.000000 1.000000
vn -0.000001 0.000000 1.000000
vn -0.000001 0.000000 1.000000
vn 0.001399 0.999999 0.000109
vn 0.001399 0.999999 0.000109
vn 0.001399 0.999999 0.000109
vn 0.001399 0.999999 0.000109
vn -0.000001 0.000000 -1.000000
vn 0.000000 0.000000 -1.000000
vn -0.000001 0.000000 -1.000000
vn -0.000001 0.000000 -1.000000
vn 1.000000 0.000000 0.000000
vn 1.000000 0.000000 0.000000
vn 1.000000 0.000000 0.000000
vn 1.000000 0.000000 0.000000
vn -1.000000 0.000000 0.000000
vn -1.000000 0.000000 0.000000
vn -1.000000 0.000000 0.000000
vn -1.000000 0.000000 0.000000
vn -0.000001 0.000000 -1.000000
vn 0.000000 0.000000 -1.000000
vn 0.000000 0.000000 -1.000000
vn 0.000000 0.000000 -1.000000
vn 1.000000 -0.000002 0.000752
vn 1.000000 -0.000002 0.000752
vn 1.000000 0.000000 0.000752
vn 1.000000 0.000000 0.000752
vn 0.000000 0.000000 1.000000
vn 0.000000 0.000000 1.000000
vn -0.000001 0.000000 1.000000
vn 0.000000 0.000000 1.000000
vn 0.000000 0.000000 1.000000
vn 0.000000 0.000000 1.000000
vn 0.000000 0.000000 1.000000
vn 0.000000 0.000000 1.000000
vn -1.000000 0.000000 -0.001006
vn -1.000000 0.000002 -0.001006
vn -1.000000 0.000002 -0.001006
vn -1.000000 0.000000 -0.001006
vn 0.000000 0.000000 -1.000000
vn 0.000000 0.000000 -1.000000
vn 0.000000 0.000000 -1.000000
vn 0.000000 0.000000 -1.000000
vn 0.000000 0.000000 1.000000
vn 0.000000 0.000000 1.000000
vn 0.000000 0.000000 1.000000
vn 0.000000 0.000000 1.000000
vn 0.000000 0.000000 -1.000000
vn 0.000000 0.000000 -1.000000
vn 0.000000 0.000000 -1.000000
vn 0.000000 0.000000 -1.000000
vn -1.000000 0.000000 0.000504
vn -1.000000 0.000002 0.000504
vn -0.999927 0.012085 0.000504
vn -0.999927 0.012085 0.000504
vn -0.999937 -0.011221 0.000504
vn -0.999937 -0.011221 0.000504
vn -1.000000 0.000002 0.000504
vn -1.000000 0.000000 0.000504
vn 1.000000 -0.000002 -0.000754
vn 1.000000 0.000000 -0.000754
vn 1.000000 0.000000 -0.000754
vn 1.000000 -0.000002 -0.000754
vn 1.000000 -0.000004 -0.000754
vn 1.000000 -0.000002 -0.000754
vn 1.000000 -0.000002 -0.000754
vn 1.000000 -0.000004 -0.000754
vn 0.000000 1.000000 0.000000
vn 0.000000 1.000000 0.000000
vn 0.000000 1.000000 0.000000
vn 0.000000 1.000000 0.000000
vn -1.000000 0.000005 0.000000
vn -1.000000 0.000005 0.000000
vn -1.000000 0.000005 0.000000
vn -1.000000 0.000005 0.000000
vn 0.000649 1.000000 -0.000601
vn 0.000649 1.000000 -0.000601
vn 0.000649 1.000000 -0.000601
vn 0.000649 1.000000 -0.000601
vn 1.000000 0.000005 0.000000
vn 1.000000 0.000005 0.000000
vn 1.000000 0.000005 0.000000
vn 1.000000 0.000005 0.000000
vn -0.001334 0.999999 -0.000102
vn -0.001334 0.999999 -0.000102
vn -0.001334 0.999999 -0.000102
vn -0.001334 0.999999 -0.000102
vn -0.000332 0.999999 -0.001500
vn -0.000332 0.999999 -0.001500
vn -0.000313 1.000000 -0.000196
vn -0.000313 1.000000 -0.000195
vn -0.000303 1.000000 -0.000097
vn -0.000303 1.000000 -0.000097
vn -0.000206 1.000000 -0.000179
vn -0.000206 1.000000 -0.000179
vn -0.000313 1.000000 -0.000195
vn -0.000313 1.000000 -0.000196
vn -0.000303 1.000000 -0.000097
vn -0.000303 1.000000 -0.000097
vn 0.000132 1.000000 0.000210
vn 0.000132 1.000000 0.000210
vn 0.000132 1.000000 0.000210
vn 0.000132 1.000000 0.000210
vn -0.001186 0.999999 -0.000287
vn -0.001186 0.999999 -0.000287
vn -0.001186 0.999999 -0.000287
vn -0.001186 0.999999 -0.000287
vn -0.005687 0.000000 0.999984
vn -0.005687 0.000000 0.999984
vn -0.005687 0.000000 0.999984
vn -0.005687 0.000000 0.999984
vn -0.999998 0.000019 0.001757
vn -0.999998 0.000019 0.001757
vn -0.999998 0.000019 0.001757
vn -0.999998 0.000019 0.001757
vn -0.000263 0.999999 0.001197
vn -0.000263 0.999999 0.001197
vn -0.000263 0.999999 0.001197
vn -0.000263 0.999999 0.001197
vn 0.999981 0.000032 0.006181
vn 0.999981 0.000032 0.006181
vn 0.999981 0.000032 0.006181
vn 0.999981 0.000032 0.006181
vn 0.005982 0.000000 0.999982
vn 0.005982 0.000000 0.999982
vn 0.005982 0.000000 0.999982
vn 0.005982 0.000000 0.999982
vn -0.002712 0.999996 -0.000347
vn -0.002712 0.999996 -0.000347
vn -0.002712 0.999996 -0.000347
vn -0.002712 0.999996 -0.000347
vn 0.999980 0.000000 -0.006347
vn 0.999980 0.000000 -0.006347
vn 0.999980 0.000000 -0.006347
vn 0.999980 0.000000 -0.006347
vn 0.000307 0.000000 -1.000000
vn 0.000307 0.000000 -1.000000
vn 0.000307 0.000000 -1.000000
vn 0.000307 0.000000 -1.000000
vn 0.000251 1.000000 -0.000252
vn 0.000251 1.000000 -0.000252
vn 0.000251 1.000000 -0.000252
vn 0.000251 1.000000 -0.000252
vn -0.999998 0.000000 -0.001809
vn -0.999998 0.000000 -0.001809
vn -0.999998 0.000000 -0.001809
vn -0.999998 0.000000 -0.001809
vn -0.000292 0.000000 -1.000000
vn -0.000292 0.000000 -1.000000
vn -0.000292 0.000000 -1.000000
vn -0.000292 0.000000 -1.000000
vn 0.002682 0.999996 0.000014
vn 0.002682 0.999996 0.000014
vn 0.002682 0.999996 0.000014
vn 0.002682 0.999996 0.000014
s off
g route:route_crois
usemtl initialShadingGroup
f 1/1/1 9/2/2 17/3/3 23/4/4
f 3/5/5 10/6/6 34/7/7 25/8/8
f 24/9/9 18/10/10 12/11/11 7/12/12
f 2/13/13 28/14/14 29/15/15 22/16/16
f 26/17/17 27/18/18 1/1/19 23/4/20
f 32/19/21 33/20/22 17/3/23 19/21/24
f 22/16/25 19/21/26 13/22/27 2/13/28
f 30/23/29 31/24/30 14/25/31 4/26/32
f 16/27/33 20/28/34 21/29/35 8/30/36
f 33/20/37 34/7/38 10/6/39 17/3/40
f 14/25/41 31/24/42 32/19/43 19/21/44
f 21/29/45 20/28/46 15/31/47 6/32/48
f 22/16/49 29/15/50 30/23/51 4/26/52
f 14/25/53 19/21/54 22/16/55 4/26/56
f 23/4/57 17/3/58 10/6/59 3/5/60
f 25/8/61 26/17/62 23/4/63 3/5/64
f 5/33/65 11/34/66 18/10/67 24/9/68
f 9/2/69 13/22/70 19/21/71 17/3/72
f 16/27/73 12/11/74 18/10/75 20/28/76
f 24/9/77 36/35/78 37/36/79 5/33/80
f 7/12/81 35/37/82 36/35/83 24/9/84
f 43/38/85 44/39/86 8/30/87 21/29/88
f 42/40/89 43/38/90 21/29/91 6/32/92
f 15/31/93 41/41/94 42/40/95 6/32/96
f 40/42/97 41/41/98 15/31/99 20/28/100
f 18/10/101 39/43/102 40/42/103 20/28/104
f 11/34/105 38/44/106 39/43/107 18/10/108
f 37/36/109 38/44/110 11/34/111 5/33/112
f 45/45/113 53/46/114 61/47/115 67/48/116
f 47/49/117 54/50/118 76/51/119 37/36/120
f 68/52/121 62/53/122 56/54/123 51/55/124
f 46/56/125 27/18/126 26/17/127 66/57/128
f 36/35/129 35/37/130 45/45/131 67/48/132
f 74/58/133 75/59/134 61/47/135 63/60/136
f 66/57/137 63/60/138 57/61/139 46/56/140
f 25/8/141 73/62/142 58/63/143 48/64/144
f 60/65/145 64/66/146 65/67/147 52/68/148
f 75/59/149 76/51/150 54/50/151 61/47/152
f 58/63/153 73/62/154 74/58/155 63/60/156
f 65/67/157 64/66/158 59/69/159 50/70/160
f 66/57/161 26/17/162 25/8/163 48/64/164
f 58/63/165 63/60/166 66/57/167 48/64/168
f 67/48/169 61/47/170 54/50/171 47/49/172
f 37/36/173 36/35/174 67/48/175 47/49/176
f 49/71/177 55/72/178 62/53/179 68/52/180
f 53/46/181 57/61/182 63/60/183 61/47/184
f 60/65/185 56/54/186 62/53/187 64/66/188
f 68/52/189 43/38/190 42/40/191 49/71/192
f 51/55/193 44/39/194 43/38/195 68/52/196
f 29/15/197 28/14/198 52/68/199 65/67/200
f 30/23/201 29/15/202 65/67/203 50/70/204
f 59/69/205 69/73/206 30/23/207 50/70/208
f 70/74/209 69/73/210 59/69/211 64/66/212
f 62/53/213 71/75/214 70/74/215 64/66/216
f 55/72/217 72/76/218 71/75/219 62/53/220
f 42/40/221 72/76/222 55/72/223 49/71/224
f 75/59/225 74/58/226 79/77/227 80/78/228
f 78/79/229 77/80/230 70/74/231 71/75/232
f 80/78/233 79/77/234 77/80/235 78/79/236
f 33/20/237 32/19/238 77/80/239 79/77/240
f 40/42/241 39/43/242 80/78/243 78/79/244
f 77/80/245 32/19/246 31/24/247 81/81/248
f 70/74/249 77/80/250 81/81/251 69/73/252
f 31/24/253 30/23/254 69/73/255 81/81/256
f 78/79/257 71/75/258 72/76/259 82/82/260
f 40/42/261 78/79/262 82/82/263 41/41/264
f 42/40/265 41/41/266 82/82/267 72/76/268
f 75/59/269 80/78/270 83/83/271 76/51/272
f 80/78/273 39/43/274 38/44/275 83/83/276
f 38/44/277 37/36/278 76/51/279 83/83/280
f 79/77/281 74/58/282 73/62/283 84/84/284
f 33/20/285 79/77/286 84/84/287 34/7/288
f 25/8/289 34/7/290 84/84/291 73/62/292
