# This file uses centimeters as units for non-parametric coordinates.

mtllib maison 2.mtl
g default
v -7.868485 -22.528303 -85.221388
v 12.290289 -22.528303 -85.221388
v -7.868485 8.720587 -85.221388
v 12.290289 8.720587 -85.221388
v -7.868485 8.720587 -164.637085
v 12.290289 8.720587 -164.637085
v -7.868485 -22.528303 -164.637085
v 12.290289 -22.528303 -164.637085
v 2.582044 -22.528303 -85.221388
v 2.582044 15.916009 -85.221388
v 2.582044 15.916009 -164.637085
v 2.582044 -22.528303 -164.637085
vt 0.375000 0.000000
vt 0.625000 0.000000
vt 0.375000 0.250000
vt 0.625000 0.250000
vt 0.375000 0.500000
vt 0.625000 0.500000
vt 0.375000 0.750000
vt 0.625000 0.750000
vt 0.875000 0.000000
vt 0.875000 0.250000
vt 0.125000 0.000000
vt 0.125000 0.250000
vt 0.504603 0.000000
vt 0.504603 0.250000
vt 0.504603 0.500000
vt 0.504603 0.750000
vn 0.000000 0.000000 1.000000
vn 0.000000 0.000000 1.000000
vn 0.000000 0.000000 1.000000
vn 0.000000 0.000000 1.000000
vn -0.567100 0.823649 0.000000
vn 0.000000 1.000000 0.000000
vn 0.000000 1.000000 0.000000
vn -0.567100 0.823649 0.000000
vn 0.000000 0.000000 -1.000000
vn 0.000000 0.000000 -1.000000
vn 0.000000 0.000000 -1.000000
vn 0.000000 0.000000 -1.000000
vn 1.000000 0.000000 0.000000
vn 1.000000 0.000000 0.000000
vn 1.000000 0.000000 0.000000
vn 1.000000 0.000000 0.000000
vn -1.000000 0.000000 0.000000
vn -1.000000 0.000000 0.000000
vn -1.000000 0.000000 0.000000
vn -1.000000 0.000000 0.000000
vn 0.000000 0.000000 1.000000
vn 0.000000 0.000000 1.000000
vn 0.595448 0.803394 0.000000
vn 0.595448 0.803394 0.000000
vn 0.000000 0.000000 -1.000000
vn 0.000000 0.000000 -1.000000
s 1
g pCube83
usemtl initialShadingGroup
f 1/1/1 9/13/2 10/14/3 3/3/4
s 2
f 3/3/5 10/14/6 11/15/7 5/5/8
s 3
f 5/5/9 11/15/10 12/16/11 7/7/12
s off
f 2/2/13 8/9/14 6/10/15 4/4/16
f 7/11/17 1/1/18 3/3/19 5/12/20
s 1
f 10/14/3 9/13/2 2/2/21 4/4/22
s 2
f 11/15/7 10/14/6 4/4/23 6/6/24
s 3
f 12/16/11 11/15/10 6/6/25 8/8/26
